<?xml version="1.0" encoding="utf-8"?>
<!-- Generator: Adobe Illustrator 19.2.0, SVG Export Plug-In . SVG Version: 6.00 Build 0)  -->
<svg version="1.1" id="Layer_1" xmlns="http://www.w3.org/2000/svg" xmlns:xlink="http://www.w3.org/1999/xlink" x="0px" y="0px"
	 width="20px" height="20px" viewBox="0 0 20 20" enable-background="new 0 0 20 20" xml:space="preserve">
<g>
	<rect fill="none" width="20" height="20"/>
</g>
<rect fill="none" width="20" height="20"/>
<path fill="#D8D8D8" d="M19,7.5C19,5.567,17.433,4,15.5,4c-0.561,0-1.084,0.144-1.554,0.379C13.186,2.969,11.714,2,10,2
	S6.814,2.969,6.054,4.379C5.584,4.144,5.061,4,4.5,4C2.567,4,1,5.567,1,7.5c0,1.762,1.306,3.205,3,3.45V19h12v-8.05
	C17.694,10.705,19,9.262,19,7.5z"/>
<rect x="4" y="13" fill="#F05565" width="12" height="2"/>
</svg>
