<svg viewBox="0 0 251 45" xmlns="http://www.w3.org/2000/svg" xmlns:xlink="http://www.w3.org/1999/xlink">
  <defs>
    <path d="M22.598 44H.774V.6h20.398c7.936 0 13.144 3.906 13.144 10.85 0 4.402-2.48 7.378-5.456 8.618 2.418.496 4.464 1.798 6.2 3.844 1.736 2.046 2.604 4.588 2.604 7.75 0 3.658-1.364 6.634-4.092 8.928C30.844 42.884 27.186 44 22.598 44zM9.702 24.966v11.346h11.222c4.402 0 7.068-1.984 7.068-5.642 0-3.658-2.666-5.704-7.068-5.704H9.702zm0-16.926v9.548h10.044c3.72 0 5.952-1.736 5.952-4.712 0-3.038-2.232-4.836-5.952-4.836H9.702zm49.4196356 36.766c-4.836 0-8.928-1.488-12.214-4.464-3.286-2.976-4.96-6.944-4.96-11.842 0-4.588 1.488-8.432 4.464-11.532 2.976-3.162 6.882-4.712 11.656-4.712 4.526 0 8.06 1.612 10.726 4.774 2.666 3.162 4.03 7.006 4.03 11.594v2.294h-22.196c.93 4.216 4.898 6.448 10.354 6.448 3.472 0 6.758-.93 9.92-2.728v7.006c-2.79 2.108-6.696 3.162-11.78 3.162zm-8.494-19.468h13.578c-.186-3.41-2.604-6.2-6.51-6.2-3.968 0-6.634 2.542-7.068 6.2zm36.9576356-1.054V44h-8.742V.6h8.742v16.244c2.79-3.038 6.262-4.588 10.354-4.588 7.1919998 0 11.2839998 4.836 11.2839998 12.772V44h-8.742V26.826c0-4.774-2.6659998-6.572-5.8899998-6.572-2.728 0-5.518 1.736-7.006 4.03zm58.3476358 12.958c.744 0 1.364-.124 1.798-.372v6.386c-1.116.868-2.666 1.302-4.712 1.302-3.534 0-5.828-1.302-7.006-3.968-2.728 2.79-6.262 4.216-10.664 4.216-6.696 0-11.408-4.092-11.408-10.354 0-3.286 1.178-5.828 3.596-7.564 2.418-1.736 5.27-2.604 8.618-2.604 3.472 0 6.448.62 8.928 1.922v-.93c0-3.906-2.728-5.828-8.184-5.828-3.286 0-6.448.868-9.362 2.604v-7.316c3.162-1.674 6.944-2.48 11.47-2.48 4.402 0 7.998 1.054 10.664 3.224 2.728 2.17 4.092 5.146 4.092 8.928v10.478c0 1.55.744 2.356 2.17 2.356zm-10.85-2.356v-3.1c-1.798-1.178-3.906-1.798-6.448-1.798-3.72 0-6.076 1.488-6.076 4.03 0 2.728 2.294 4.03 5.518 4.03 3.038 0 5.394-1.054 7.006-3.162zm26.789635-10.602V44h-8.742V13.062h8.742v3.72c2.79-3.038 6.2-4.526 10.354-4.526 7.192 0 11.284 4.836 11.284 12.772V44h-8.742V26.826c0-4.774-2.666-6.572-5.89-6.572-2.728 0-5.518 1.736-7.006 4.03zm43.653636 20.522c-4.588 0-8.556-1.488-11.842-4.464-3.286-3.038-4.96-7.006-4.96-11.904s1.674-8.804 4.96-11.718c3.348-2.976 7.316-4.464 11.966-4.464 3.41 0 6.448.682 9.176 2.046v7.44c-2.666-1.24-5.332-1.86-7.874-1.86-2.728 0-5.022.806-6.882 2.418-1.798 1.55-2.728 3.658-2.728 6.2 0 2.542.93 4.65 2.79 6.262 1.86 1.612 4.154 2.418 6.82 2.418 3.162 0 5.952-.682 8.37-2.108v7.44c-2.914 1.55-6.138 2.294-9.796 2.294zm31.067635 0c-4.836 0-8.928-1.488-12.214-4.464-3.286-2.976-4.96-6.944-4.96-11.842 0-4.588 1.488-8.432 4.464-11.532 2.976-3.162 6.882-4.712 11.656-4.712 4.526 0 8.06 1.612 10.726 4.774 2.666 3.162 4.03 7.006 4.03 11.594v2.294h-22.196c.93 4.216 4.898 6.448 10.354 6.448 3.472 0 6.758-.93 9.92-2.728v7.006c-2.79 2.108-6.696 3.162-11.78 3.162zm-8.494-19.468h13.578c-.186-3.41-2.604-6.2-6.51-6.2-3.968 0-6.634 2.542-7.068 6.2z" id="a"/>
    <linearGradient x1="74.5930699%" y1="7.88557599%" x2="48.2419658%" y2="81.1057954%" id="b">
      <stop stop-color="#FF005D" offset="0%"/>
      <stop stop-color="#FF00F1" offset="100%"/>
    </linearGradient>
  </defs>
  <g fill="none" fill-rule="evenodd">
    <mask id="c" fill="#fff">
      <use xlink:href="#a"/>
    </mask>
    <use fill="#D9D9D9" xlink:href="#a"/>
    <path d="M-704.272111-65.0493593c44.24776-13.8119887 137.436992-31.3197806 256.498734-20.3783439 119.061743 10.9414367 221.146162 18.3026055 246.819538-4.981373 25.673376-23.2839788 96.687355-74.3447168 225.2824078-91.0272578 128.5950532-16.682541 110.7240202 70.648914 206.8246252 8.381752 64.067069-41.511441 81.120893 1.056655 51.161472 127.7042884C-379.262858-14.1348979-709.590706 1.09542327-708.668877.3406698c1.382742-1.13213022-39.850994-51.5780405 4.396766-65.3900291z" fill="url(#b)" opacity=".69999999" mask="url(#c)" transform="rotate(27 -214.088349 -94.029171)"/>
  </g>
</svg>
