<svg viewBox="0 0 257 46" xmlns="http://www.w3.org/2000/svg" xmlns:xlink="http://www.w3.org/1999/xlink">
  <defs>
    <path d="M17.018 45H.774V1.6h16.244c7.006 0 12.772 2.046 17.174 6.076 4.402 4.03 6.634 9.238 6.634 15.624 0 6.386-2.232 11.656-6.634 15.686C29.79 43.016 24.024 45 17.018 45zM9.702 9.598v27.404h6.572c9.672 0 15.376-5.084 15.376-13.702S25.946 9.598 16.274 9.598H9.702zM56.4556356 45h-8.742V14.062h8.742v5.208c.93-1.612 2.356-3.038 4.34-4.216 1.984-1.178 4.154-1.798 6.448-1.798.434 0 .744 0 .992.062v8.556c-.744-.186-1.674-.31-2.728-.31-4.216 0-7.812 2.604-9.052 5.394V45zm25.9836356 0h-8.742V14.062h8.742V45zm-9.61-39.122c0-2.976 2.294-5.27 5.208-5.27s5.208 2.294 5.208 5.27c0 2.914-2.294 5.208-5.208 5.208s-5.208-2.294-5.208-5.208zm36.8336358 39.928c-4.464 0-7.874-1.55-10.1680003-4.588V45h-8.742V1.6h8.742v16.244c2.4180003-3.038 5.7660003-4.588 10.1680003-4.588 4.216 0 7.688 1.55 10.416 4.712 2.79 3.1 4.154 6.944 4.154 11.532 0 4.65-1.364 8.494-4.154 11.656-2.728 3.1-6.2 4.65-10.416 4.65zm-2.48-7.626c2.418 0 4.464-.806 6.014-2.48 1.55-1.674 2.356-3.72 2.356-6.2 0-2.418-.806-4.464-2.356-6.138-1.55-1.674-3.596-2.48-6.014-2.48-3.41 0-6.262 1.922-7.6880003 4.588v8.06c1.4260003 2.666 4.2780003 4.65 7.6880003 4.65zm41.731635 7.626c-4.464 0-7.874-1.55-10.168-4.588V45h-8.742V1.6h8.742v16.244c2.418-3.038 5.766-4.588 10.168-4.588 4.216 0 7.688 1.55 10.416 4.712 2.79 3.1 4.154 6.944 4.154 11.532 0 4.65-1.364 8.494-4.154 11.656-2.728 3.1-6.2 4.65-10.416 4.65zm-2.48-7.626c2.418 0 4.464-.806 6.014-2.48 1.55-1.674 2.356-3.72 2.356-6.2 0-2.418-.806-4.464-2.356-6.138-1.55-1.674-3.596-2.48-6.014-2.48-3.41 0-6.262 1.922-7.688 4.588v8.06c1.426 2.666 4.278 4.65 7.688 4.65zm41.731636 7.626c-4.464 0-7.874-1.55-10.168-4.588V45h-8.742V1.6h8.742v16.244c2.418-3.038 5.766-4.588 10.168-4.588 4.216 0 7.688 1.55 10.416 4.712 2.79 3.1 4.154 6.944 4.154 11.532 0 4.65-1.364 8.494-4.154 11.656-2.728 3.1-6.2 4.65-10.416 4.65zm-2.48-7.626c2.418 0 4.464-.806 6.014-2.48 1.55-1.674 2.356-3.72 2.356-6.2 0-2.418-.806-4.464-2.356-6.138-1.55-1.674-3.596-2.48-6.014-2.48-3.41 0-6.262 1.922-7.688 4.588v8.06c1.426 2.666 4.278 4.65 7.688 4.65zm31.067635 7.626c-4.774 0-8.246-2.356-8.246-8.556V1.6h8.742v33.356c0 2.046.93 3.1 2.79 3.1.868 0 1.612-.186 2.232-.558v7.192c-1.488.744-3.348 1.116-5.518 1.116zm25.921636 0c-4.836 0-8.928-1.488-12.214-4.464-3.286-2.976-4.96-6.944-4.96-11.842 0-4.588 1.488-8.432 4.464-11.532 2.976-3.162 6.882-4.712 11.656-4.712 4.526 0 8.06 1.612 10.726 4.774 2.666 3.162 4.03 7.006 4.03 11.594v2.294h-22.196c.93 4.216 4.898 6.448 10.354 6.448 3.472 0 6.758-.93 9.92-2.728v7.006c-2.79 2.108-6.696 3.162-11.78 3.162zm-8.494-19.468h13.578c-.186-3.41-2.604-6.2-6.51-6.2-3.968 0-6.634 2.542-7.068 6.2z" id="a"/>
    <linearGradient x1="74.5930699%" y1="7.88557599%" x2="48.2419658%" y2="81.1057954%" id="b">
      <stop stop-color="#FF005D" offset="0%"/>
      <stop stop-color="#FF00F1" offset="100%"/>
    </linearGradient>
  </defs>
  <g fill="none" fill-rule="evenodd">
    <mask id="c" fill="#fff">
      <use xlink:href="#a"/>
    </mask>
    <use fill="#D9D9D9" xlink:href="#a"/>
    <path d="M-119.338332 52.8054869C-96.9196758 38.4944274-49.704239 20.3540236 10.6198141 31.690809S122.666157 50.6547456 135.673879 26.5294433C148.681601 2.40414107 184.661682-50.5015836 249.8159-67.7869171c65.154219-17.2853335 56.099647 73.20168257 104.790165 8.6846113 32.460346-43.0113812 41.10087 1.0948352 25.921571 132.3186479C45.3314863 105.559649-122.033061 121.34029-121.566006 120.558265c.700583-1.173038-20.190982-53.4417187 2.227674-67.7527781z" fill="url(#b)" opacity=".69999999" mask="url(#c)" transform="rotate(2 129.019123 22.778543)"/>
  </g>
</svg>
