<svg viewBox="0 0 113 12" xmlns="http://www.w3.org/2000/svg">
  <path d="M3.053005 6.963917l.81304-1.041174c2.122353-2.717876 5.639214-2.779263 7.855128-.137112l1.054189 1.256966c2.215914 2.642151 5.732775 2.580764 7.855129-.137112l1.00968-1.292991c2.122354-2.717875 5.639214-2.779262 7.855128-.137111l1.05419 1.256966c2.215913 2.64215 5.732774 2.580763 7.855128-.137112l1.00968-1.292991c2.122354-2.717876 5.639215-2.779263 7.855128-.137112l1.05419 1.256966C50.539529 9.064251 54.877646 8.640618 57 5.922743m53.160823-.664424l-.813039 1.041174c-2.122354 2.717875-5.639215 2.779262-7.855129.137112l-1.054189-1.256966c-2.215914-2.642151-5.732775-2.580764-7.855129.137111l-1.00968 1.292991c-2.122354 2.717876-5.639214 2.779263-7.855128.137112l-1.05419-1.256966c-2.215913-2.642151-5.732774-2.580764-7.855128.137112l-1.00968 1.292991c-2.122354 2.717875-5.639215 2.779262-7.855128.137112l-1.05419-1.256966c-2.215913-2.642151-5.732774-2.580764-7.855128.137111" stroke="#FFF" stroke-width="5" fill="none" fill-rule="evenodd" stroke-linecap="round"/>
</svg>
