<?xml version="1.0" encoding="UTF-8"?>
<svg width="205px" height="58px" viewBox="0 0 205 58" version="1.1" xmlns="http://www.w3.org/2000/svg" xmlns:xlink="http://www.w3.org/1999/xlink">
    <!-- Generator: Sketch 48.2 (47327) - http://www.bohemiancoding.com/sketch -->
    <title>Mask</title>
    <desc>Created with Sketch.</desc>
    <defs></defs>
    <g id="Artboard-Copy-26" stroke="none" stroke-width="1" fill="none" fill-rule="evenodd" transform="translate(-537.000000, -742.000000)">
        <path d="M572,860.741429 C572,854.177921 573.078114,848.17709 575.234375,842.738756 C577.390636,837.300421 580.203108,832.424746 583.671875,828.111584 C587.140642,823.798422 591.124977,819.907258 595.625,816.437976 C600.125023,812.968693 604.718727,809.921396 609.40625,807.295993 C600.031203,801.857659 592.250031,795.434894 586.0625,788.027507 C579.874969,780.62012 576.78125,771.290704 576.78125,760.038977 C576.78125,752.725354 578.374984,745.880656 581.5625,739.504678 C584.750016,733.128699 589.203096,727.596683 594.921875,722.908464 C600.640654,718.220244 607.437461,714.563488 615.3125,711.938085 C623.187539,709.312682 631.718704,708 640.90625,708 C649.343792,708 657.265588,709.125156 664.671875,711.375501 C672.078162,713.625847 678.593722,716.813788 684.21875,720.939421 C689.843778,725.065054 694.249984,730.081374 697.4375,735.988531 C700.625016,741.895687 702.21875,748.412215 702.21875,755.538308 C702.21875,766.602507 699.359404,776.260094 693.640625,784.51136 C687.921846,792.762627 680.0938,799.888613 670.15625,805.889534 C681.406306,811.702927 690.359342,818.547625 697.015625,826.423833 C703.671908,834.300042 707,844.426444 707,856.803344 C707,865.242139 705.171893,872.883822 701.515625,879.728623 C697.859357,886.573423 692.937531,892.43361 686.75,897.309358 C680.562469,902.185107 673.296917,905.982507 664.953125,908.701675 C656.609333,911.420842 647.750047,912.780405 638.375,912.780405 C628.999953,912.780405 620.28129,911.514605 612.21875,908.982967 C604.15621,906.451328 597.12503,902.935216 591.125,898.434525 C585.12497,893.933835 580.437517,888.495582 577.0625,882.119603 C573.687483,875.743624 572,868.617638 572,860.741429 Z M672.125,855.959469 C672.125,851.271249 670.906262,847.239441 668.46875,843.863923 C666.031238,840.488405 662.984393,837.487989 659.328125,834.862586 C655.671857,832.237183 651.640647,829.846227 647.234375,827.689646 C642.828103,825.533065 638.562521,823.329635 634.4375,821.07929 C625.062453,825.204923 617.843775,830.502532 612.78125,836.972275 C607.718725,843.442018 605.1875,849.583493 605.1875,855.396885 C605.1875,863.83568 608.18747,870.352208 614.1875,874.946663 C620.18753,879.541118 628.531197,881.838311 639.21875,881.838311 C648.781298,881.838311 656.656219,879.634881 662.84375,875.227955 C669.031281,870.821028 672.125,864.398264 672.125,855.959469 Z M611.65625,761.726727 C611.65625,766.227418 612.640615,770.024819 614.609375,773.119044 C616.578135,776.213269 619.10936,778.932395 622.203125,781.276505 C625.29689,783.620615 628.81248,785.730282 632.75,787.60557 L644.5625,793.231405 C647.562515,791.731175 650.51561,789.855915 653.421875,787.60557 C656.32814,785.355224 658.906239,782.870505 661.15625,780.151338 C663.406261,777.432171 665.234368,774.619281 666.640625,771.712585 C668.046882,768.805889 668.75,765.852355 668.75,762.851894 C668.75,758.91379 667.906258,755.491441 666.21875,752.584745 C664.531242,749.678049 662.328139,747.19333 659.609375,745.130513 C656.890611,743.067696 653.843767,741.520607 650.46875,740.489199 C647.093733,739.457791 643.625018,738.942094 640.0625,738.942094 C635.937479,738.942094 632.140642,739.598435 628.671875,740.911137 C625.203108,742.223838 622.203138,743.911572 619.671875,745.974388 C617.140612,748.037205 615.171882,750.475043 613.765625,753.287974 C612.359368,756.100906 611.65625,758.913796 611.65625,761.726727 Z" id="Mask" fill="#FFFFFF" transform="translate(639.500000, 810.390203) rotate(-270.000000) translate(-639.500000, -810.390203) "></path>
    </g>
</svg>