<?xml version="1.0" encoding="UTF-8"?>
<svg width="209px" height="147px" viewBox="0 0 209 147" version="1.1" xmlns="http://www.w3.org/2000/svg" xmlns:xlink="http://www.w3.org/1999/xlink">
    <!-- Generator: Sketch 48.2 (47327) - http://www.bohemiancoding.com/sketch -->
    <title>Group</title>
    <desc>Created with Sketch.</desc>
    <defs></defs>
    <g id="Artboard-Copy-15" stroke="none" stroke-width="1" fill="none" fill-rule="evenodd" transform="translate(-291.000000, -303.000000)">
        <g id="Group" transform="translate(291.000000, 303.000000)" fill="#FF06F1">
            <path d="M120.7861,69 C124.542924,69 127.977684,69.6170917 131.090481,70.8512935 C134.203278,72.0854953 136.99402,73.6952996 139.46279,75.6807547 C141.93156,77.6662098 144.158787,79.9467659 146.144537,82.5224915 C148.130287,85.098217 149.8745,87.727564 151.37723,90.4106115 C154.490027,85.0445166 158.166293,80.5907247 162.406137,77.0491021 C166.645982,73.5074794 171.985959,71.7366947 178.426229,71.7366947 C182.612405,71.7366947 186.530177,72.6489171 190.179663,74.4733894 C193.82915,76.2978617 196.995568,78.8467185 199.679014,82.1200363 C202.36246,85.3933542 204.455516,89.2837146 205.958246,93.7912343 C207.460976,98.298754 208.212329,103.181827 208.212329,108.4406 C208.212329,113.270085 207.568312,117.804368 206.280258,122.043583 C204.992204,126.282797 203.167488,130.012177 200.806056,133.231834 C198.444623,136.451491 195.573379,138.973518 192.192238,140.79799 C188.811096,142.622463 185.081162,143.534685 181.002324,143.534685 C174.669392,143.534685 169.141577,141.898051 164.418712,138.624733 C159.695847,135.351415 155.617071,130.870793 152.18226,125.182732 C148.854787,131.622046 144.937015,136.74659 140.428826,140.556517 C135.920637,144.366445 130.124481,146.27138 123.040183,146.27138 C118.209981,146.27138 113.83603,145.225007 109.918199,143.13223 C106.000368,141.039453 102.646111,138.222295 99.8553271,134.680673 C97.0645434,131.13905 94.8909848,126.980389 93.3345862,122.204565 C91.7781876,117.42874 91,112.357857 91,106.991762 C91,101.625667 91.7245195,96.6352735 93.1735803,92.0204319 C94.6226411,87.4055903 96.6351953,83.3810795 99.2113033,79.9467788 C101.787411,76.5124781 104.900162,73.8294709 108.549648,71.8976767 C112.199135,69.9658826 116.277911,69 120.7861,69 Z M123.523201,126.309607 C118.692999,126.309607 115.016733,124.538822 112.494294,120.997199 C109.971855,117.455577 108.710654,112.948125 108.710654,107.474708 C108.710654,101.35736 110.025523,96.5816069 112.6553,93.1473062 C115.285077,89.7130054 119.015011,87.9958808 123.845213,87.9958808 C127.172686,87.9958808 130.687947,89.4447047 134.391103,92.342396 C138.094258,95.2400872 141.126506,99.3719183 143.487939,104.738013 C142.199885,107.099095 140.938684,109.540631 139.704299,112.062696 C138.469914,114.584761 137.101377,116.892147 135.598647,118.984924 C134.095918,121.077701 132.378538,122.821655 130.446457,124.21684 C128.514376,125.612025 126.206647,126.309607 123.523201,126.309607 Z M177.460194,91.6984678 C179.070261,91.6984678 180.680304,92.1009189 182.290372,92.9058331 C183.900439,93.7107473 185.29581,94.8376103 186.476527,96.286456 C187.657243,97.7353016 188.623269,99.4524262 189.374634,101.437881 C190.125998,103.423336 190.501675,105.596572 190.501675,107.957654 C190.501675,109.99677 190.206501,111.982195 189.616142,113.913989 C189.025784,115.845784 188.140261,117.589738 186.959544,119.145906 C185.778828,120.702073 184.356623,121.963087 182.692887,122.928984 C181.02915,123.894881 179.070264,124.377822 176.81617,124.377822 C175.098764,124.377822 173.408219,123.975371 171.744482,123.170457 C170.080746,122.365543 168.470703,121.31917 166.914304,120.031307 C165.357905,118.743444 163.9357,117.26779 162.647646,115.604301 C161.359592,113.940811 160.28623,112.250517 159.427527,110.533367 L162.647646,103.772121 C163.721025,101.518361 164.928557,99.5061056 166.27028,97.7352943 C167.612003,95.964483 169.168378,94.5156591 170.939453,93.3887792 C172.710527,92.2618993 174.884085,91.6984678 177.460194,91.6984678 Z" id="Mask"></path>
            <polygon id="Mask" points="58.958916 -2.45515531e-14 58.958916 36.2182942 96.4439777 36.2182942 96.4439777 58.2888173 58.958916 58.2888173 58.958916 94.6957485 37.8617959 94.6957485 37.8617959 58.2888173 -1.98951966e-13 58.2888173 -1.82439299e-13 36.2182942 37.8617959 36.2182942 37.8617959 -2.84217094e-14"></polygon>
        </g>
    </g>
</svg>