<svg viewBox="0 0 320 218" xmlns="http://www.w3.org/2000/svg">
  <defs>
    <linearGradient x1="77.7058777%" y1="39.5853435%" x2="17.9439522%" y2="100%" id="a">
      <stop stop-color="#FF4CCF" offset="0%"/>
      <stop stop-color="red" offset="100%"/>
    </linearGradient>
    <linearGradient x1="74.5930699%" y1="7.88557599%" x2="48.2419658%" y2="81.1057954%" id="b">
      <stop stop-color="#FF005D" offset="0%"/>
      <stop stop-color="#FF00F1" offset="100%"/>
    </linearGradient>
  </defs>
  <g fill="none" fill-rule="evenodd" opacity=".69999999">
    <path d="M65.2677278 430.535784c42.8254502-34.257726 133.0191852-77.682114 248.2537792-50.544186 115.234593 27.137927 214.037587 45.395754 238.885712-12.355246 24.848125-57.751-57.687896-163.607229 66.773567-204.984754 124.461463-41.377525 258.432191 154.440568 351.443715 0 62.007679-102.9603787 78.513329 2.62081 49.516929 316.743565-660.225686 7.862429-989.8924293 10.85764-989.0002324 8.985633 1.3382953-2.80801-8.6989195-23.587286 34.1265302-57.845012z" fill="url(#a)" transform="rotate(32 591.05113818 -703.7390024)"/>
    <path d="M122.267728 389.717849c42.82545-32.491863 133.019185-73.67788 248.253779-47.938815 115.234593 25.739065 214.037587 43.055767 238.885712-11.718377 24.848125-54.774145-57.687896-155.173867 66.773567-194.41853 124.461463-39.2446628 258.432191 146.479714 351.443714 0 62.00768-97.6531427 78.51333 2.485716 49.51693 300.416577-660.225686 7.457149-989.8924293 10.297968-989.0002324 8.522456 1.3382953-2.663267-8.6989195-22.371447 34.1265304-54.863311z" fill="url(#b)" transform="rotate(17 886.70702968 -1547.23090034)"/>
  </g>
</svg>
