<svg viewBox="0 0 187 800" xmlns="http://www.w3.org/2000/svg">
  <defs>
    <linearGradient x1="77.7058777%" y1="39.5853435%" x2="17.9439522%" y2="100%" id="a">
      <stop stop-color="#FF4CCF" offset="0%"/>
      <stop stop-color="red" offset="100%"/>
    </linearGradient>
    <linearGradient x1="74.5930699%" y1="7.88557599%" x2="48.2419658%" y2="81.1057954%" id="b">
      <stop stop-color="#FF005D" offset="0%"/>
      <stop stop-color="#FF00F1" offset="100%"/>
    </linearGradient>
  </defs>
  <g fill="none" fill-rule="evenodd" opacity=".69999999">
    <path d="M55.2677278 369.374551c42.8254498-27.357737 133.0191852-62.03584 248.2537792-40.363874 115.234593 21.671966 214.037587 36.252409 238.885712-9.866725 24.848125-46.119133-57.687896-130.654424 66.773567-163.697932 124.461463-33.043508 258.432191 123.334059 351.443715 0 62.007679-82.222706 78.513329 2.092941 49.516929 252.946942-660.225686 6.278825-989.8924293 8.670758-989.0002324 7.1758 1.3382953-2.242437-8.6989195-18.836474 34.1265302-46.194211z" fill="url(#a)" transform="rotate(-75 476.65801639 629.76443353)"/>
    <path d="M112.267728 336.777925c42.82545-25.947544 133.019185-58.838116 248.253779-38.283262 115.234593 20.554854 214.037587 34.383728 238.885712-9.358131 24.848125-43.741859-57.687896-123.919661 66.773567-155.259895 124.461463-31.340234 258.432191 116.976633 351.443714 0 62.00768-77.9844216 78.51333 1.985058 49.51693 239.908441-660.225686 5.955174-989.8924293 8.223811-989.0002324 6.805913 1.3382953-2.126848-8.6989195-17.865522 34.1265304-43.813066z" fill="url(#b)" transform="rotate(-90 443 572)"/>
  </g>
</svg>
