<svg viewBox="0 0 558 342" xmlns="http://www.w3.org/2000/svg" xmlns:xlink="http://www.w3.org/1999/xlink">
  <defs>
    <rect id="b" width="558" height="342" rx="34"/>
    <pattern id="c" width="512" height="512" x="-512" y="-512" patternUnits="userSpaceOnUse">
      <use xlink:href="#a"/>
    </pattern>
    <linearGradient x1="77.7058777%" y1="39.5853435%" x2="17.9439522%" y2="100%" id="e">
      <stop stop-color="#FF4CCF" offset="0%"/>
      <stop stop-color="red" offset="100%"/>
    </linearGradient>
    <linearGradient x1="74.5930699%" y1="7.88557599%" x2="48.2419658%" y2="81.1057954%" id="f">
      <stop stop-color="#FF005D" offset="0%"/>
      <stop stop-color="#FF00F1" offset="100%"/>
    </linearGradient>
  </defs>
  <g fill="none" fill-rule="evenodd">
    <mask id="d" fill="#fff">
      <use xlink:href="#b"/>
    </mask>
    <use fill="#B100FF" xlink:href="#b"/>
    <use fill-opacity=".03147645" fill="url(#c)" xlink:href="#b"/>
    <g opacity=".5">
      <g opacity=".69999999" mask="url(#d)">
        <path d="M36.3954958 244.872984c30.8516445-16.882291 95.8276132-38.281935 178.8431272-24.908298 83.015514 13.373636 98.957327 13.042999 146.764961-10.274342 47.807635-23.317341 38.157725-96.019713 127.820317-116.4106582 89.662592-20.3909451 131.788728 95.6880072 198.794643 19.5793192 44.67061-50.7391259 56.561348 1.291541 35.672214 156.092-475.62952 3.874624-713.1229091 5.350672-712.4801665 4.428142.9641139-1.383794-6.2667403-11.623872 24.5849043-28.506163z" fill="url(#e)" transform="rotate(26 46.50408797 11.29318069)"/>
        <path d="M76.7192054 224.806176c30.8516446-16.021625 95.8276126-36.330306 178.8431266-23.638463 83.015515 12.691843 154.19363 21.230649 172.09433-5.778291s67.415027-86.238355 157.077619-105.5897621c89.662592-19.3514067 77.202057 81.9512991 144.207973 9.7226615 44.67061-48.152425 56.561348 1.2256976 35.672214 148.1343696-461.283341 36.209222-691.6036398 53.876084-690.9608972 53.000585.9641139-1.313248-27.78601-59.829475 3.0656346-75.8511z" fill="url(#f)" transform="rotate(11 -334.35387541 -315.56004157)"/>
      </g>
    </g>
    <g opacity=".5" mask="url(#d)">
      <g opacity=".69999999">
        <path d="M36.3954958 244.872984c30.8516445-16.882291 95.8276132-38.281935 178.8431272-24.908298 83.015514 13.373636 98.957327 13.042999 146.764961-10.274342 47.807635-23.317341 38.157725-96.019713 127.820317-116.4106582 89.662592-20.3909451 131.788728 95.6880072 198.794643 19.5793192 44.67061-50.7391259 56.561348 1.291541 35.672214 156.092-475.62952 3.874624-713.1229091 5.350672-712.4801665 4.428142.9641139-1.383794-6.2667403-11.623872 24.5849043-28.506163z" fill="url(#e)" transform="rotate(-158 321.4119908 128.8946604)"/>
        <path d="M76.7192054 224.806176c30.8516446-16.021625 95.8276126-36.330306 178.8431266-23.638463 83.015515 12.691843 154.19363 21.230649 172.09433-5.778291s67.415027-86.238355 157.077619-105.5897621c89.662592-19.3514067 77.202057 81.9512991 144.207973 9.7226615 44.67061-48.152425 56.561348 1.2256976 35.672214 148.1343696-461.283341 36.209222-691.6036398 53.876084-690.9608972 53.000585.9641139-1.313248-27.78601-59.829475 3.0656346-75.8511z" fill="url(#f)" transform="rotate(-173 329.54682748 123.60458229)"/>
      </g>
    </g>
  </g>
</svg>
